<?xml version="1.0" encoding="UTF-8" standalone="no"?>
<svg
   xmlns:dc="http://purl.org/dc/elements/1.1/"
   xmlns:cc="http://creativecommons.org/ns#"
   xmlns:rdf="http://www.w3.org/1999/02/22-rdf-syntax-ns#"
   xmlns:svg="http://www.w3.org/2000/svg"
   xmlns="http://www.w3.org/2000/svg"
   xmlns:sodipodi="http://sodipodi.sourceforge.net/DTD/sodipodi-0.dtd"
   xmlns:inkscape="http://www.inkscape.org/namespaces/inkscape"
   sodipodi:docname="logo_final-dark.svg"
   inkscape:version="1.0 (4035a4fb49, 2020-05-01)"
   id="svg4629"
   version="1.1"
   viewBox="0 0 40.323696 25.347157"
   height="25.347157mm"
   width="40.323696mm">
  <defs
     id="defs4623" />
  <sodipodi:namedview
     inkscape:window-maximized="1"
     inkscape:window-y="-7"
     inkscape:window-x="-7"
     inkscape:window-height="1001"
     inkscape:window-width="1620"
     showgrid="false"
     inkscape:document-rotation="0"
     inkscape:current-layer="layer1"
     inkscape:document-units="mm"
     inkscape:cy="57.077214"
     inkscape:cx="92.486146"
     inkscape:zoom="2.8284272"
     inkscape:pageshadow="2"
     inkscape:pageopacity="0.0"
     borderopacity="1.0"
     bordercolor="#666666"
     pagecolor="#ffffff"
     id="base" />
  <metadata
     id="metadata4626">
    <rdf:RDF>
      <cc:Work
         rdf:about="">
        <dc:format>image/svg+xml</dc:format>
        <dc:type
           rdf:resource="http://purl.org/dc/dcmitype/StillImage" />
        <dc:title />
      </cc:Work>
    </rdf:RDF>
  </metadata>
  <g
     transform="translate(-23.439709,-7.1323992)"
     id="layer1"
     inkscape:groupmode="layer"
     inkscape:label="Layer 1">
    <text
       xml:space="preserve"
       style="font-size:10.5833px;line-height:1.25;font-family:Arial;-inkscape-font-specification:Arial;stroke-width:0.264583"
       x="93.19001"
       y="87.799248"
       id="text6715"><tspan
         sodipodi:role="line"
         id="tspan6713"
         x="93.19001"
         y="87.799248"
         style="stroke-width:0.264583" /></text>
    <g
       inkscape:export-ydpi="965.79016"
       inkscape:export-xdpi="965.79016"
       id="g897">
      <path
         id="path874"
         style="font-size:22.6667px;line-height:1.25;font-family:Manjari;-inkscape-font-specification:Manjari;fill:#333333;fill-opacity:1;stroke-width:0.265624"
         d="m 24.269784,15.479531 q 0.232422,0 0.442709,0.14388 0.221354,0.14388 0.309896,0.3431 l 4.03972,8.732434 3.45313,-8.677096 q 0.08854,-0.221354 0.309896,-0.376303 0.221355,-0.154948 0.464845,-0.154948 0.431641,0 0.675131,0.365235 0.254557,0.354167 0.08854,0.785809 l -4.880867,12.240903 q -0.320964,0.796877 -0.863283,1.626956 -0.542318,0.830079 -1.350262,1.394533 -0.807944,0.575522 -1.925784,0.575522 -0.3431,0 -0.58659,-0.24349 -0.24349,-0.24349 -0.24349,-0.586589 0,-0.320964 0.232423,-0.575522 0.232422,-0.24349 0.553386,-0.254558 0.763673,-0.05534 1.272788,-0.453777 0.509116,-0.38737 0.852215,-0.996095 0.354167,-0.597657 0.597657,-1.283856 0.254558,-0.675131 0.498048,-1.283856 L 23.517179,16.674845 q -0.07747,-0.177084 -0.07747,-0.365235 0,-0.343099 0.24349,-0.586589 0.24349,-0.24349 0.58659,-0.24349 z" />
      <g
         transform="matrix(0.79029696,0,0,0.79029696,-77.468196,-139.05255)"
         style="font-style:normal;font-weight:normal;font-size:25.4px;line-height:1.25;font-family:sans-serif;text-align:center;letter-spacing:0px;word-spacing:0px;text-anchor:middle;fill:#ff7f2a;fill-opacity:1;stroke:none;stroke-width:0.265;stroke-miterlimit:4;stroke-dasharray:none;stroke-opacity:1"
         id="g6495">
        <path
           id="path6491"
           d="m 141.01353,209.78519 h -3.302 l 6.0198,-15.24 c 0.32173,-0.8128 0.77047,-1.38007 1.3462,-1.7018 0.59267,-0.33867 1.3462,-0.508 2.2606,-0.508 0.89747,0 1.63407,0.16933 2.2098,0.508 0.59267,0.32173 1.0414,0.889 1.3462,1.7018 l 5.7912,15.24 h -3.3274 l -5.207,-13.7922 c -0.1524,-0.38947 -0.4318,-0.5842 -0.8382,-0.5842 -0.4064,0 -0.69427,0.19473 -0.8636,0.5842 z"
           style="color:#000000;font-style:normal;font-variant:normal;font-weight:normal;font-stretch:normal;font-size:25.4px;line-height:1.25;font-family:Nasalization;-inkscape-font-specification:Nasalization;font-variant-ligatures:normal;font-variant-position:normal;font-variant-caps:normal;font-variant-numeric:normal;font-variant-alternates:normal;font-variant-east-asian:normal;font-feature-settings:normal;font-variation-settings:normal;text-indent:0;text-align:start;text-decoration:none;text-decoration-line:none;text-decoration-style:solid;text-decoration-color:#000000;letter-spacing:0px;word-spacing:0px;text-transform:none;writing-mode:lr-tb;direction:ltr;text-orientation:mixed;dominant-baseline:auto;baseline-shift:baseline;text-anchor:start;white-space:normal;shape-padding:0;shape-margin:0;inline-size:0;clip-rule:nonzero;display:inline;overflow:visible;visibility:visible;isolation:auto;mix-blend-mode:normal;color-interpolation:sRGB;color-interpolation-filters:linearRGB;solid-color:#000000;solid-opacity:1;vector-effect:none;fill:#ff7f2a;fill-opacity:1;fill-rule:nonzero;stroke:none;stroke-width:0.265;stroke-linecap:butt;stroke-linejoin:miter;stroke-miterlimit:4;stroke-dasharray:none;stroke-dashoffset:0;stroke-opacity:1;color-rendering:auto;image-rendering:auto;shape-rendering:auto;text-rendering:auto;enable-background:accumulate;stop-color:#000000;stop-opacity:1" />
        <path
           id="path6493"
           d="m 147.33789,192.20312 c -0.93001,0 -1.7063,0.17274 -2.32422,0.5254 -0.60803,0.33978 -1.07676,0.93519 -1.40625,1.76757 l -6.08984,15.42188 h 3.58594 l 0.0332,-0.084 5.43359,-13.78906 c 0.15388,-0.35392 0.37812,-0.5039 0.74219,-0.5039 0.36407,0 0.57701,0.14775 0.71484,0.5 l 5.23828,13.87695 h 3.61133 l -5.85937,-15.41992 c -0.31232,-0.83285 -0.78002,-1.42981 -1.4043,-1.76953 -0.60144,-0.35334 -1.362,-0.5254 -2.27539,-0.5254 z m 0,0.26563 c 0.8808,0 1.59278,0.16487 2.14258,0.48828 l 0.002,0.002 h 0.002 c 0.55992,0.30396 0.98825,0.84107 1.28515,1.63282 l 5.72266,15.06054 h -3.04297 l -5.17383,-13.70703 h -0.002 c -0.16697,-0.42668 -0.51221,-0.66992 -0.96094,-0.66992 -0.44873,0 -0.79959,0.23905 -0.98438,0.66406 l -0.002,0.002 -5.40234,13.71093 h -3.01758 l 5.94922,-15.05859 c 0.31398,-0.79321 0.74368,-1.33108 1.28711,-1.63477 0.56718,-0.3241 1.29727,-0.49023 2.19531,-0.49023 z"
           style="color:#000000;font-style:normal;font-variant:normal;font-weight:normal;font-stretch:normal;font-size:25.4px;line-height:1.25;font-family:Nasalization;-inkscape-font-specification:Nasalization;font-variant-ligatures:normal;font-variant-position:normal;font-variant-caps:normal;font-variant-numeric:normal;font-variant-alternates:normal;font-variant-east-asian:normal;font-feature-settings:normal;font-variation-settings:normal;text-indent:0;text-align:start;text-decoration:none;text-decoration-line:none;text-decoration-style:solid;text-decoration-color:#000000;letter-spacing:0px;word-spacing:0px;text-transform:none;writing-mode:lr-tb;direction:ltr;text-orientation:mixed;dominant-baseline:auto;baseline-shift:baseline;text-anchor:start;white-space:normal;shape-padding:0;shape-margin:0;inline-size:0;clip-rule:nonzero;display:inline;overflow:visible;visibility:visible;isolation:auto;mix-blend-mode:normal;color-interpolation:sRGB;color-interpolation-filters:linearRGB;solid-color:#000000;solid-opacity:1;vector-effect:none;fill:#ff7f2a;fill-opacity:1;fill-rule:nonzero;stroke:none;stroke-width:0.265;stroke-linecap:butt;stroke-linejoin:miter;stroke-miterlimit:4;stroke-dasharray:none;stroke-dashoffset:0;stroke-opacity:1;color-rendering:auto;image-rendering:auto;shape-rendering:auto;text-rendering:auto;enable-background:accumulate;stop-color:#000000;stop-opacity:1" />
      </g>
      <path
         d="m 47.084959,12.844986 v 13.999998 h 2.622853 V 12.844986 h -0.105085 z"
         style="color:#000000;font-style:normal;font-variant:normal;font-weight:normal;font-stretch:normal;font-size:25.4px;line-height:1.25;font-family:Nasalization;-inkscape-font-specification:Nasalization;font-variant-ligatures:normal;font-variant-position:normal;font-variant-caps:normal;font-variant-numeric:normal;font-variant-alternates:normal;font-variant-east-asian:normal;font-feature-settings:normal;font-variation-settings:normal;text-indent:0;text-align:start;text-decoration:none;text-decoration-line:none;text-decoration-style:solid;text-decoration-color:#000000;letter-spacing:0px;word-spacing:0px;text-transform:none;writing-mode:lr-tb;direction:ltr;text-orientation:mixed;dominant-baseline:auto;baseline-shift:baseline;text-anchor:start;white-space:normal;shape-padding:0;shape-margin:0;inline-size:0;clip-rule:nonzero;display:inline;overflow:visible;visibility:visible;isolation:auto;mix-blend-mode:normal;color-interpolation:sRGB;color-interpolation-filters:linearRGB;solid-color:#000000;solid-opacity:1;vector-effect:none;fill:#ff7f2a;fill-opacity:1;fill-rule:nonzero;stroke:none;stroke-width:0.21309;stroke-linecap:butt;stroke-linejoin:miter;stroke-miterlimit:4;stroke-dasharray:none;stroke-dashoffset:0;stroke-opacity:1;color-rendering:auto;image-rendering:auto;shape-rendering:auto;text-rendering:auto;enable-background:accumulate;stop-color:#000000"
         id="path6497" />
      <path
         sodipodi:nodetypes="cc"
         id="path6501"
         d="M 49.707812,26.812484 H 23.536752"
         style="fill:none;stroke:#333333;stroke-width:0.0649999;stroke-linecap:butt;stroke-linejoin:miter;stroke-miterlimit:4;stroke-dasharray:none;stroke-opacity:1" />
      <path
         id="path878"
         style="font-size:10.5833px;line-height:1.25;font-family:Manjari;-inkscape-font-specification:Manjari;fill:#333333;fill-opacity:1;stroke-width:0.264583"
         d="m 51.051048,7.1530697 q 0.191202,0 0.299722,0.1291907 0.113688,0.124023 0.113688,0.2635489 v 6.5628857 q 0,0.134359 -0.124023,0.232544 -0.118856,0.09818 -0.232543,0.09818 -0.1757,0 -0.299723,-0.10852 -0.118855,-0.10852 -0.118855,-0.279052 V 7.5561446 q 0,-0.1498612 0.10852,-0.2738842 0.10852,-0.1291907 0.253214,-0.1291907 z" />
      <path
         id="path880"
         style="font-size:10.5833px;line-height:1.25;font-family:Manjari;-inkscape-font-specification:Manjari;fill:#333333;fill-opacity:1;stroke-width:0.264583"
         d="m 55.13864,9.0082477 q 0.552936,0 0.992185,0.3203929 0.444416,0.3203928 0.775144,0.6769594 l 0.04651,-0.6511213 q 0,-0.1498612 0.08268,-0.2532137 0.08268,-0.1085202 0.232544,-0.1085202 0.149861,0 0.253213,0.1085202 0.108521,0.1033525 0.108521,0.2532137 v 4.6715343 q 0,0.149861 -0.108521,0.258382 -0.103352,0.103352 -0.253213,0.103352 -0.149862,0 -0.258382,-0.103352 -0.103352,-0.108521 -0.103352,-0.258382 v -0.589109 q -0.341064,0.372069 -0.811318,0.671791 -0.465086,0.299723 -0.981849,0.299723 -0.532265,0 -0.987016,-0.217041 -0.454752,-0.222208 -0.795815,-0.599444 -0.341063,-0.377237 -0.532266,-0.857826 -0.186034,-0.485757 -0.186034,-1.018023 0,-0.527098 0.186034,-1.012855 0.191203,-0.490924 0.532266,-0.868161 0.346231,-0.3824044 0.80615,-0.6046123 0.459919,-0.222208 1.002519,-0.222208 z m 1.793167,2.6768303 q 0,-0.501259 -0.242879,-0.930172 -0.23771,-0.434081 -0.645953,-0.702798 -0.403075,-0.2687163 -0.899167,-0.2687163 -0.50126,0 -0.899167,0.2738843 -0.397907,0.273884 -0.63045,0.7183 -0.227376,0.439248 -0.227376,0.940508 0,0.496092 0.227376,0.935341 0.227375,0.439248 0.614947,0.713132 0.39274,0.268717 0.883664,0.268717 0.496092,0 0.909503,-0.273885 0.41341,-0.279051 0.661456,-0.723467 0.248046,-0.449584 0.248046,-0.950844 z" />
      <path
         id="path882"
         style="font-size:10.5833px;line-height:1.25;font-family:Manjari;-inkscape-font-specification:Manjari;fill:#333333;fill-opacity:1;stroke-width:0.264583"
         d="m 61.355295,14.408418 q -0.542601,0 -0.976682,-0.289387 -0.43408,-0.289388 -0.728635,-0.58911 l -0.02584,0.496092 q 0,0.160197 -0.103353,0.273885 -0.09819,0.113687 -0.258381,0.113687 -0.160196,0 -0.273884,-0.113687 -0.113688,-0.113688 -0.113688,-0.273885 V 7.5199712 q 0,-0.1601964 0.113688,-0.2738842 0.113688,-0.1136878 0.273884,-0.1136878 0.160196,0 0.273884,0.1136878 0.113688,0.1136878 0.113688,0.2738842 v 2.3357673 q 0.315225,-0.3307281 0.733803,-0.5839418 0.418578,-0.2532137 0.925005,-0.2532137 0.537433,0 0.981849,0.2273755 0.449584,0.2273756 0.780312,0.6149476 0.330728,0.3824049 0.511595,0.8733289 0.180867,0.490925 0.180867,1.018023 0,0.697629 -0.310058,1.307409 -0.310057,0.604612 -0.852658,0.976682 -0.542601,0.372069 -1.245398,0.372069 z m -0.0155,-0.775144 q 0.490925,0 0.857826,-0.258382 0.372069,-0.263549 0.573607,-0.687294 0.206705,-0.428913 0.206705,-0.919838 0,-0.496092 -0.206705,-0.945675 -0.206705,-0.454751 -0.578775,-0.738971 -0.372069,-0.289387 -0.873329,-0.289387 -0.516762,0 -0.893999,0.273884 -0.372069,0.268717 -0.573607,0.69763 -0.196369,0.428913 -0.196369,0.91467 0,0.485757 0.201537,0.93534 0.201538,0.449584 0.578774,0.733803 0.382405,0.28422 0.904335,0.28422 z" />
    </g>
    <rect
       inkscape:export-ydpi="965.79016"
       inkscape:export-xdpi="965.79016"
       ry="0.29032737"
       y="32.436142"
       x="23.439709"
       height="13.142978"
       width="40.504696"
       id="rect844"
       style="fill:none;stroke:#ffffff;stroke-width:0.412448;stroke-linejoin:bevel;stroke-dasharray:0, 4.53692;stroke-dashoffset:4.12448" />
    <rect
       inkscape:export-ydpi="965.79016"
       inkscape:export-xdpi="965.79016"
       ry="0.16841047"
       y="-0.50329924"
       x="18.386457"
       height="40.576321"
       width="5.0532508"
       id="rect845"
       style="fill:none;stroke:#ffffff;stroke-width:0.228223;stroke-linejoin:bevel;stroke-dasharray:0, 2.51046000000000014;stroke-dashoffset:2.28223" />
    <rect
       inkscape:export-ydpi="965.79016"
       inkscape:export-xdpi="965.79016"
       style="fill:none;stroke:#ffffff;stroke-width:0.228223;stroke-linejoin:bevel;stroke-dasharray:0, 2.51046000000000014;stroke-dashoffset:2.28223"
       id="rect847"
       width="5.0532508"
       height="40.576321"
       x="63.828648"
       y="-0.50329924"
       ry="0.16841047" />
    <rect
       style="fill:none;stroke:#ffffff;stroke-width:0.412448;stroke-linejoin:bevel;stroke-dasharray:0, 4.53692;stroke-dashoffset:4.12448"
       id="rect1076"
       width="40.504696"
       height="13.142978"
       x="23.439709"
       y="32.436142"
       ry="0.29032737"
       inkscape:export-xdpi="965.79016"
       inkscape:export-ydpi="965.79016" />
    <rect
       style="fill:none;stroke:#ffffff;stroke-width:0.412448;stroke-linejoin:bevel;stroke-dasharray:0, 4.53692;stroke-dashoffset:4.12448"
       id="rect1078"
       width="40.504696"
       height="13.142978"
       x="23.439709"
       y="-5.8234897"
       ry="0.29032737"
       inkscape:export-xdpi="965.79016"
       inkscape:export-ydpi="965.79016" />
    <rect
       inkscape:export-ydpi="965.79016"
       inkscape:export-xdpi="965.79016"
       ry="0.29032737"
       y="-5.8234897"
       x="23.439709"
       height="13.142978"
       width="40.504696"
       id="rect1080"
       style="fill:none;stroke:#ffffff;stroke-width:0.412448;stroke-linejoin:bevel;stroke-dasharray:0, 4.53692;stroke-dashoffset:4.12448" />
  </g>
</svg>
