<?xml version="1.0" encoding="UTF-8" standalone="no"?>
<svg
   xmlns:dc="http://purl.org/dc/elements/1.1/"
   xmlns:cc="http://creativecommons.org/ns#"
   xmlns:rdf="http://www.w3.org/1999/02/22-rdf-syntax-ns#"
   xmlns:svg="http://www.w3.org/2000/svg"
   xmlns="http://www.w3.org/2000/svg"
   xmlns:sodipodi="http://sodipodi.sourceforge.net/DTD/sodipodi-0.dtd"
   xmlns:inkscape="http://www.inkscape.org/namespaces/inkscape"
   width="40.323696mm"
   height="25.347157mm"
   viewBox="0 0 40.323696 25.347157"
   version="1.1"
   id="svg4629"
   inkscape:version="1.0 (4035a4fb49, 2020-05-01)"
   sodipodi:docname="yaihub_logo_dark.svg">
  <defs
     id="defs4623" />
  <sodipodi:namedview
     id="base"
     pagecolor="#ffffff"
     bordercolor="#666666"
     borderopacity="1.0"
     inkscape:pageopacity="0.0"
     inkscape:pageshadow="2"
     inkscape:zoom="2.0000001"
     inkscape:cx="43.538396"
     inkscape:cy="69.325708"
     inkscape:document-units="mm"
     inkscape:current-layer="g897"
     inkscape:document-rotation="0"
     showgrid="false"
     inkscape:window-width="1620"
     inkscape:window-height="1001"
     inkscape:window-x="-7"
     inkscape:window-y="-7"
     inkscape:window-maximized="1" />
  <metadata
     id="metadata4626">
    <rdf:RDF>
      <cc:Work
         rdf:about="">
        <dc:format>image/svg+xml</dc:format>
        <dc:type
           rdf:resource="http://purl.org/dc/dcmitype/StillImage" />
        <dc:title></dc:title>
      </cc:Work>
    </rdf:RDF>
  </metadata>
  <g
     inkscape:label="Layer 1"
     inkscape:groupmode="layer"
     id="layer1"
     transform="translate(-23.439709,-7.1323992)">
    <text
       id="text6715"
       y="87.799248"
       x="93.19001"
       style="font-size:10.5833px;line-height:1.25;font-family:Arial;-inkscape-font-specification:Arial;stroke-width:0.264583"
       xml:space="preserve"><tspan
         style="stroke-width:0.264583"
         y="87.799248"
         x="93.19001"
         id="tspan6713"
         sodipodi:role="line" /></text>
    <g
       id="g897"
       inkscape:export-xdpi="965.79016"
       inkscape:export-ydpi="965.79016">
      <path
         inkscape:export-ydpi="965.79016"
         inkscape:export-xdpi="965.79016"
         d="m 24.269784,15.479531 q 0.232422,0 0.442709,0.14388 0.221354,0.14388 0.309896,0.3431 l 4.03972,8.732434 3.45313,-8.677096 q 0.08854,-0.221354 0.309896,-0.376303 0.221355,-0.154948 0.464845,-0.154948 0.431641,0 0.675131,0.365235 0.254557,0.354167 0.08854,0.785809 l -4.880867,12.240903 q -0.320964,0.796877 -0.863283,1.626956 -0.542318,0.830079 -1.350262,1.394533 -0.807944,0.575522 -1.925784,0.575522 -0.3431,0 -0.58659,-0.24349 -0.24349,-0.24349 -0.24349,-0.586589 0,-0.320964 0.232423,-0.575522 0.232422,-0.24349 0.553386,-0.254558 0.763673,-0.05534 1.272788,-0.453777 0.509116,-0.38737 0.852215,-0.996095 0.354167,-0.597657 0.597657,-1.283856 0.254558,-0.675131 0.498048,-1.283856 L 23.517179,16.674845 q -0.07747,-0.177084 -0.07747,-0.365235 0,-0.343099 0.24349,-0.586589 0.24349,-0.24349 0.58659,-0.24349 z"
         style="font-size:22.6667px;line-height:1.25;font-family:Manjari;-inkscape-font-specification:Manjari;fill:#333333;fill-opacity:1;stroke-width:0.265624"
         id="path874" />
      <g
         inkscape:export-ydpi="965.79016"
         inkscape:export-xdpi="965.79016"
         id="g6495"
         style="font-style:normal;font-weight:normal;font-size:25.4px;line-height:1.25;font-family:sans-serif;text-align:center;letter-spacing:0px;word-spacing:0px;text-anchor:middle;fill:#ff7f2a;fill-opacity:1;stroke:none;stroke-width:0.265;stroke-miterlimit:4;stroke-dasharray:none;stroke-opacity:1"
         transform="matrix(0.79029696,0,0,0.79029696,-77.468196,-139.05255)">
        <path
           style="color:#000000;font-style:normal;font-variant:normal;font-weight:normal;font-stretch:normal;font-size:25.4px;line-height:1.25;font-family:Nasalization;-inkscape-font-specification:Nasalization;font-variant-ligatures:normal;font-variant-position:normal;font-variant-caps:normal;font-variant-numeric:normal;font-variant-alternates:normal;font-variant-east-asian:normal;font-feature-settings:normal;font-variation-settings:normal;text-indent:0;text-align:start;text-decoration:none;text-decoration-line:none;text-decoration-style:solid;text-decoration-color:#000000;letter-spacing:0px;word-spacing:0px;text-transform:none;writing-mode:lr-tb;direction:ltr;text-orientation:mixed;dominant-baseline:auto;baseline-shift:baseline;text-anchor:start;white-space:normal;shape-padding:0;shape-margin:0;inline-size:0;clip-rule:nonzero;display:inline;overflow:visible;visibility:visible;isolation:auto;mix-blend-mode:normal;color-interpolation:sRGB;color-interpolation-filters:linearRGB;solid-color:#000000;solid-opacity:1;vector-effect:none;fill:#ff7f2a;fill-opacity:1;fill-rule:nonzero;stroke:none;stroke-width:0.265;stroke-linecap:butt;stroke-linejoin:miter;stroke-miterlimit:4;stroke-dasharray:none;stroke-dashoffset:0;stroke-opacity:1;color-rendering:auto;image-rendering:auto;shape-rendering:auto;text-rendering:auto;enable-background:accumulate;stop-color:#000000;stop-opacity:1"
           d="m 141.01353,209.78519 h -3.302 l 6.0198,-15.24 c 0.32173,-0.8128 0.77047,-1.38007 1.3462,-1.7018 0.59267,-0.33867 1.3462,-0.508 2.2606,-0.508 0.89747,0 1.63407,0.16933 2.2098,0.508 0.59267,0.32173 1.0414,0.889 1.3462,1.7018 l 5.7912,15.24 h -3.3274 l -5.207,-13.7922 c -0.1524,-0.38947 -0.4318,-0.5842 -0.8382,-0.5842 -0.4064,0 -0.69427,0.19473 -0.8636,0.5842 z"
           id="path6491" />
        <path
           style="color:#000000;font-style:normal;font-variant:normal;font-weight:normal;font-stretch:normal;font-size:25.4px;line-height:1.25;font-family:Nasalization;-inkscape-font-specification:Nasalization;font-variant-ligatures:normal;font-variant-position:normal;font-variant-caps:normal;font-variant-numeric:normal;font-variant-alternates:normal;font-variant-east-asian:normal;font-feature-settings:normal;font-variation-settings:normal;text-indent:0;text-align:start;text-decoration:none;text-decoration-line:none;text-decoration-style:solid;text-decoration-color:#000000;letter-spacing:0px;word-spacing:0px;text-transform:none;writing-mode:lr-tb;direction:ltr;text-orientation:mixed;dominant-baseline:auto;baseline-shift:baseline;text-anchor:start;white-space:normal;shape-padding:0;shape-margin:0;inline-size:0;clip-rule:nonzero;display:inline;overflow:visible;visibility:visible;isolation:auto;mix-blend-mode:normal;color-interpolation:sRGB;color-interpolation-filters:linearRGB;solid-color:#000000;solid-opacity:1;vector-effect:none;fill:#ff7f2a;fill-opacity:1;fill-rule:nonzero;stroke:none;stroke-width:0.265;stroke-linecap:butt;stroke-linejoin:miter;stroke-miterlimit:4;stroke-dasharray:none;stroke-dashoffset:0;stroke-opacity:1;color-rendering:auto;image-rendering:auto;shape-rendering:auto;text-rendering:auto;enable-background:accumulate;stop-color:#000000;stop-opacity:1"
           d="m 147.33789,192.20312 c -0.93001,0 -1.7063,0.17274 -2.32422,0.5254 -0.60803,0.33978 -1.07676,0.93519 -1.40625,1.76757 l -6.08984,15.42188 h 3.58594 l 0.0332,-0.084 5.43359,-13.78906 c 0.15388,-0.35392 0.37812,-0.5039 0.74219,-0.5039 0.36407,0 0.57701,0.14775 0.71484,0.5 l 5.23828,13.87695 h 3.61133 l -5.85937,-15.41992 c -0.31232,-0.83285 -0.78002,-1.42981 -1.4043,-1.76953 -0.60144,-0.35334 -1.362,-0.5254 -2.27539,-0.5254 z m 0,0.26563 c 0.8808,0 1.59278,0.16487 2.14258,0.48828 l 0.002,0.002 h 0.002 c 0.55992,0.30396 0.98825,0.84107 1.28515,1.63282 l 5.72266,15.06054 h -3.04297 l -5.17383,-13.70703 h -0.002 c -0.16697,-0.42668 -0.51221,-0.66992 -0.96094,-0.66992 -0.44873,0 -0.79959,0.23905 -0.98438,0.66406 l -0.002,0.002 -5.40234,13.71093 h -3.01758 l 5.94922,-15.05859 c 0.31398,-0.79321 0.74368,-1.33108 1.28711,-1.63477 0.56718,-0.3241 1.29727,-0.49023 2.19531,-0.49023 z"
           id="path6493" />
      </g>
      <path
         inkscape:export-ydpi="965.79016"
         inkscape:export-xdpi="965.79016"
         id="path6497"
         style="color:#000000;font-style:normal;font-variant:normal;font-weight:normal;font-stretch:normal;font-size:25.4px;line-height:1.25;font-family:Nasalization;-inkscape-font-specification:Nasalization;font-variant-ligatures:normal;font-variant-position:normal;font-variant-caps:normal;font-variant-numeric:normal;font-variant-alternates:normal;font-variant-east-asian:normal;font-feature-settings:normal;font-variation-settings:normal;text-indent:0;text-align:start;text-decoration:none;text-decoration-line:none;text-decoration-style:solid;text-decoration-color:#000000;letter-spacing:0px;word-spacing:0px;text-transform:none;writing-mode:lr-tb;direction:ltr;text-orientation:mixed;dominant-baseline:auto;baseline-shift:baseline;text-anchor:start;white-space:normal;shape-padding:0;shape-margin:0;inline-size:0;clip-rule:nonzero;display:inline;overflow:visible;visibility:visible;isolation:auto;mix-blend-mode:normal;color-interpolation:sRGB;color-interpolation-filters:linearRGB;solid-color:#000000;solid-opacity:1;vector-effect:none;fill:#ff7f2a;fill-opacity:1;fill-rule:nonzero;stroke:none;stroke-width:0.21309;stroke-linecap:butt;stroke-linejoin:miter;stroke-miterlimit:4;stroke-dasharray:none;stroke-dashoffset:0;stroke-opacity:1;color-rendering:auto;image-rendering:auto;shape-rendering:auto;text-rendering:auto;enable-background:accumulate;stop-color:#000000"
         d="m 47.084959,12.844986 v 13.999998 h 2.622853 V 12.844986 h -0.105085 z" />
      <path
         inkscape:export-ydpi="965.79016"
         inkscape:export-xdpi="965.79016"
         style="fill:none;stroke:#333333;stroke-width:0.0649999;stroke-linecap:butt;stroke-linejoin:miter;stroke-miterlimit:4;stroke-dasharray:none;stroke-opacity:1"
         d="M 49.707812,26.812484 H 23.536752"
         id="path6501"
         sodipodi:nodetypes="cc" />
      <path
         inkscape:export-ydpi="965.79016"
         inkscape:export-xdpi="965.79016"
         style="stroke-width:0.142;stroke-miterlimit:4;stroke-dasharray:none;fill:#333333;fill-opacity:1"
         d="m 62.041748,11.899895 c 0.637863,0 1.148154,0.510291 1.148154,1.148154 0,0.637863 -0.510291,1.148154 -1.148154,1.148154 -0.637864,0 -1.148154,-0.510291 -1.148154,-1.148154 0,-0.198446 0.0567,-0.382718 0.141748,-0.552815 -0.01418,-0.01418 -0.02835,-0.02835 -0.01418,-0.0567 0.01418,-0.01417 0.02835,-0.02835 0.0567,-0.01417 v 0 c 0.198446,-0.311845 0.552815,-0.524466 0.963882,-0.524466 z m -5.811644,1.148154 c -0.467767,0 -0.86466,0.382718 -0.86466,0.86466 0,0.467766 0.382718,0.864659 0.86466,0.864659 0.467766,0 0.864659,-0.382718 0.864659,-0.864659 0,-0.481942 -0.396893,-0.86466 -0.864659,-0.86466 z m -3.798831,-1.034756 c 0,-0.113398 -0.01418,-0.212621 -0.0567,-0.311844 0,0 0,0 0.01418,0 h 0.01418 c 0.01418,0 0.02835,-0.01418 0.02835,-0.04253 0,0 0,-0.01418 0,-0.01418 -0.01417,-0.01418 -0.02835,-0.02835 -0.0567,-0.02835 h -0.01418 c 0,0 0,0 0,0 -0.155922,-0.368543 -0.510291,-0.623689 -0.921358,-0.623689 -0.552815,0 -1.006407,0.453592 -1.006407,1.006407 0,0.552815 0.453592,1.006406 1.006407,1.006406 0.552815,0 0.992231,-0.439416 0.992231,-0.992231 z M 50.546032,5.6630087 c 0,0.396892 0.326019,0.722912 0.722912,0.722912 0.212621,0 0.396893,-0.09922 0.53864,-0.240971 0,0.01417 0,0.02835 0.01417,0.04252 l 0.01417,0.01418 c 0.01418,0.01418 0.04253,0.01418 0.0567,0 0,-0.01418 0.01417,-0.01418 0.01417,-0.02835 0,-0.01418 0,-0.02835 -0.01417,-0.02835 l -0.01417,-0.01418 c -0.01418,-0.01418 -0.02835,-0.01418 -0.04253,0 0.09922,-0.127573 0.170097,-0.283495 0.170097,-0.453592 0,-0.396893 -0.326019,-0.722912 -0.722912,-0.722912 -0.396892,0 -0.737086,0.311844 -0.737086,0.708737 z m 3.883879,0.141747 c 0,0.311844 0.255146,0.566989 0.56699,0.566989 0.311845,0 0.56699,-0.255145 0.56699,-0.566989 0,-0.311844 -0.255145,-0.56699 -0.56699,-0.56699 -0.311844,-0.01417 -0.56699,0.255146 -0.56699,0.56699 z m 4.209899,1.871066 c 0,0.212621 0.07087,0.411068 0.184272,0.581165 l -0.01418,0.01417 c -0.01418,0.01418 -0.01418,0.02835 0,0.0567 0.01418,0.01418 0.04253,0.01418 0.0567,0.01418 l 0.01418,-0.01418 c 0.184272,0.226796 0.453592,0.354369 0.765436,0.354369 0.552815,0 1.006407,-0.453592 1.006407,-1.006407 0,-0.552815 -0.453592,-1.006407 -1.006407,-1.006407 -0.552815,0 -1.006407,0.453592 -1.006407,1.006407 z m -2.18291,0.893009 c -0.864659,0 -1.573397,0.708737 -1.573397,1.5733963 0,0.184272 0.02835,0.368544 0.09922,0.524465 0,0 0,0.01418 0,0.01418 0,0 0,0.01418 0.01418,0.01418 0.226796,0.595339 0.793785,1.006407 1.474173,1.006407 0.595339,0 1.119805,-0.340194 1.389125,-0.83631 0.01417,0 0.02835,0 0.04252,-0.02835 0,0 0,-0.01418 0,-0.01418 0,-0.01418 0,-0.01418 -0.01418,-0.02835 0.09922,-0.212621 0.155921,-0.439416 0.155921,-0.680387 C 58.030292,9.2633967 57.321551,8.5688347 56.456891,8.5688347 Z M 56.35768,11.91407 c 0,0.02835 0.01417,0.04253 0.04252,0.04253 0.02835,0 0.04253,-0.01418 0.04253,-0.04253 v -0.01418 c 0,0 0,0 0,0 0,-0.02835 -0.01418,-0.04252 -0.04253,-0.04252 -0.02835,0 -0.04252,0.01417 -0.04252,0.04252 z m -0.01418,0.751261 c 0,0.01418 0.01418,0.04252 0.04252,0.04252 0.02835,0 0.04252,-0.01418 0.04252,-0.04252 v -0.01418 c 0,0 0,0 0,0 0,-0.02835 -0.01418,-0.04252 -0.04252,-0.04252 -0.02835,0 -0.04252,0.01417 -0.04252,0.04252 z m 0.08505,-0.26932 c 0,-0.02835 -0.01417,-0.04252 -0.04252,-0.04252 -0.02835,0 -0.04252,0.01417 -0.04252,0.04252 v 0.01418 c 0,0.02835 0.01418,0.04252 0.04252,0.04252 0.02835,0 0.04252,-0.01417 0.04252,-0.04252 v -0.01418 c 0,0 0,0 0,0 z m 0,-0.240971 v -0.01417 c 0,0 0,0 0,0 0,-0.02835 -0.01417,-0.04252 -0.04252,-0.04252 -0.02835,0 -0.04252,0.01418 -0.04252,0.04252 v 0.01417 c 0,0.01418 0.01418,0.04252 0.04252,0.04252 0.02835,0 0.04252,-0.01418 0.04252,-0.04252 z m -0.09922,0.751262 c 0,0.02835 0.01418,0.04252 0.04252,0.04252 0.02835,0 0.04253,-0.01417 0.04253,-0.04252 v -0.01418 c 0,0 0,0 0,0 0,-0.02835 -0.01418,-0.04253 -0.04253,-0.04253 -0.02835,0 -0.04252,0.01418 -0.04252,0.04253 z m 2.849124,-1.389125 c -0.01418,0.01418 0,0.04252 0.01418,0.0567 l 0.01418,0.01418 c 0.01418,0.01418 0.04253,0 0.0567,-0.01418 0,0 0,-0.01418 0,-0.01418 0,-0.01418 -0.01418,-0.02835 -0.02835,-0.04252 l -0.01418,-0.01418 c -0.01418,-0.01417 -0.04252,0 -0.04252,0.01418 z m -0.467767,-0.226796 c -0.01418,0.01418 0,0.04252 0.01418,0.0567 l 0.01417,0.01418 c 0.01418,0.01417 0.04252,0 0.0567,-0.01418 0,0 0,-0.01418 0,-0.01418 0,-0.01418 -0.01418,-0.02835 -0.02835,-0.04252 l -0.01418,-0.01418 c 0,-0.01418 -0.02835,-0.01418 -0.04252,0.01418 z m 0.240971,0.113398 c -0.01418,0.01418 0,0.04253 0.01418,0.0567 l 0.01418,0.01418 c 0.01418,0.01418 0.04253,0 0.0567,-0.01418 0,0 0,-0.01418 0,-0.01418 0,-0.01417 -0.01417,-0.02835 -0.02835,-0.04253 l -0.01418,-0.01418 c -0.01418,-0.01418 -0.04253,-0.01418 -0.04253,0.01418 z M 58.257095,11.04941 c -0.01418,0.01418 0,0.04252 0.01418,0.0567 l 0.01418,0.01418 c 0.01418,0.01418 0.04252,0 0.0567,-0.01418 0,0 0,-0.01418 0,-0.01418 0,-0.01418 -0.01418,-0.02835 -0.02835,-0.04252 l -0.01418,-0.01418 c -0.01418,-0.01418 -0.04252,0 -0.04252,0.01418 z m -0.24097,-0.113397 c -0.01418,0.01418 0,0.04252 0.01418,0.0567 h 0.02835 c 0.01418,0.01417 0.04252,0 0.0567,-0.01418 0,0 0,-0.01418 0,-0.01418 0,-0.01418 -0.01418,-0.02835 -0.02835,-0.04252 l -0.01418,-0.01418 c -0.01418,0 -0.04252,0.01418 -0.0567,0.02835 z m 0.467766,0.226796 c -0.01418,0.01417 0,0.04252 0.01418,0.0567 l 0.01418,0.01418 c 0.01418,0.01418 0.04252,0 0.0567,-0.01418 0,0 0,-0.01417 0,-0.01417 0,-0.01418 -0.01418,-0.02835 -0.02835,-0.04252 l -0.01418,-0.01418 c -0.01418,-0.01417 -0.02835,0 -0.04252,0.01418 z m 0.921358,0.467766 c -0.01417,0.01418 0,0.04253 0.01418,0.0567 l 0.02835,0.01418 c 0.01418,0.01418 0.04252,0 0.0567,-0.01418 0,0 0,-0.01418 0,-0.01418 0,-0.01418 -0.01418,-0.02835 -0.02835,-0.04253 l -0.01418,-0.01417 c -0.02835,-0.01418 -0.04252,0 -0.0567,0.01417 z m 1.148154,0.581165 c -0.01418,0.01417 0,0.04253 0.01418,0.0567 l 0.01418,0.01418 c 0.01418,0.01418 0.04252,0 0.0567,-0.01418 0,0 0,-0.01417 0,-0.01417 0,-0.01418 -0.01417,-0.02835 -0.02835,-0.04253 l -0.01417,-0.01418 c 0,-0.01418 -0.02835,0 -0.04253,0.01418 z m -0.921357,-0.467767 c -0.01418,0.01418 0,0.04252 0.01417,0.0567 l 0.01418,0.01418 c 0.01417,0.01417 0.04252,0 0.0567,-0.01418 0,0 0,-0.01418 0,-0.01418 0,-0.01417 -0.01418,-0.02835 -0.02835,-0.04252 l -0.01418,-0.01418 c 0,0 -0.02835,0 -0.04252,0.01418 z m 0.77961,0.396893 c 0,0 0,-0.01418 0,-0.01418 0,-0.01418 -0.01417,-0.02835 -0.02835,-0.04253 l -0.01418,-0.01417 c -0.01417,-0.01418 -0.04252,0 -0.0567,0.01417 -0.01418,0.01418 0,0.04253 0.01418,0.0567 l 0.01418,0.01418 c 0.04252,0.01418 0.07087,0.01418 0.07087,-0.01418 z m 0.467767,0.240971 c 0,0 0,-0.01418 0,-0.01418 0,-0.01418 -0.01418,-0.02835 -0.02835,-0.04252 l -0.01417,-0.01417 c -0.01418,-0.01418 -0.04252,0 -0.0567,0.01417 -0.01418,0.01418 0,0.04252 0.01418,0.0567 l 0.01417,0.01417 c 0.02835,0.01418 0.0567,0 0.07087,-0.01417 z m -0.765436,-0.340194 0.01418,0.01417 c 0.01418,0.01418 0.04252,0 0.0567,-0.01417 0,0 0,-0.01418 0,-0.01418 0,-0.01418 -0.01418,-0.02835 -0.02835,-0.04252 l -0.01417,-0.01418 c -0.01418,-0.01418 -0.04252,0 -0.0567,0.01418 0,0.01417 0.01418,0.04252 0.02835,0.0567 z m -0.240971,-0.170097 c -0.01418,0.01417 0,0.04252 0.01417,0.0567 l 0.01418,0.01418 c 0.01418,0.01418 0.04252,0 0.0567,-0.01418 0,0 0,-0.01418 0,-0.01418 0,-0.01418 -0.01418,-0.02835 -0.02835,-0.04252 l -0.01418,-0.01417 c -0.01418,-0.01418 -0.04253,-0.01418 -0.04253,0.01417 z M 58.413014,8.6255287 c 0.01418,0.01418 0.04252,0.01418 0.0567,0.01418 l 0.01418,-0.01418 c 0.01418,-0.01417 0.01418,-0.01417 0.01418,-0.02835 0,-0.01418 0,-0.01418 -0.01418,-0.02835 -0.01418,-0.01418 -0.04252,-0.01418 -0.0567,-0.01418 l -0.01418,0.01418 c -0.01418,0.01418 -0.01418,0.04252 0,0.0567 z m -0.198447,0.09922 c -0.01418,0.01418 -0.01418,0.04252 -0.01418,0.0567 0.01418,0.01418 0.04252,0.01418 0.0567,0 l 0.01418,-0.01418 c 0.01418,-0.01418 0.01418,-0.01418 0.01418,-0.02835 0,-0.01418 0,-0.01418 -0.01418,-0.02835 -0.01418,-0.01418 -0.04252,-0.01418 -0.0567,0 z m 0.396893,-0.29767 c -0.01418,0.01418 -0.01418,0.04252 -0.01418,0.0567 0.01418,0.01418 0.04252,0.01418 0.0567,0.01418 l 0.01418,-0.01418 c 0.01418,-0.01417 0.01418,-0.01417 0.01418,-0.02835 0,-0.01418 0,-0.01418 -0.01418,-0.02835 -0.01418,-0.01418 -0.04253,-0.01418 -0.0567,-0.01418 z m -0.595339,0.453592 c -0.01418,0.01417 -0.01418,0.04252 -0.01418,0.0567 0.01418,0.01418 0.04252,0.01418 0.0567,0.01418 l 0.01417,-0.01418 c 0.01418,-0.01417 0.01418,-0.01417 0.01418,-0.02835 0,-0.01418 0,-0.01418 -0.01418,-0.02835 -0.01417,-0.01418 -0.04252,-0.01418 -0.0567,-0.01418 z m -0.198447,0.155926 c -0.01417,0.01418 -0.01417,0.04253 -0.01417,0.0567 0.01417,0.01418 0.04252,0.01418 0.0567,0.01418 l 0.01418,-0.01418 c 0.01418,-0.01418 0.01418,-0.01418 0.01418,-0.02835 0,-0.01418 0,-0.01418 -0.01418,-0.02835 -0.01418,-0.01418 -0.04252,-0.01418 -0.0567,-0.01418 z m -2.367182,-2.012813 c 0,-0.01418 0,-0.01418 0,0 l -0.01417,-0.02835 c 0,-0.01418 -0.02835,-0.02835 -0.0567,-0.02835 -0.01418,0 -0.02835,0.02835 -0.02835,0.0567 v 0.01417 c 0,0.01418 0.02835,0.02835 0.0567,0.02835 0.02835,-0.01418 0.04252,-0.02835 0.04252,-0.04252 z m 0.0567,0.26932 c 0.01417,0 0.02835,-0.01418 0.02835,-0.04252 0,0 0,-0.01418 0,-0.01418 v -0.01418 c 0,-0.01418 -0.02835,-0.02835 -0.0567,-0.02835 -0.01418,0 -0.02835,0.02835 -0.02835,0.0567 v 0.01418 c 0.01418,0.02835 0.02835,0.04252 0.0567,0.02835 z m 0.09922,0.212621 c 0,-0.01418 0,-0.01418 0,0 l -0.01418,-0.02835 c 0,-0.01418 -0.02835,-0.02835 -0.0567,-0.02835 -0.01418,0 -0.02835,0.02835 -0.02835,0.0567 v 0.01418 c 0,0.01418 0.02835,0.02835 0.0567,0.02835 0.04253,-0.01417 0.04253,-0.02835 0.04253,-0.04252 z m 0.24097,0.722912 c 0,-0.01418 0,-0.01418 0,0 l -0.01418,-0.02835 c 0,-0.01418 -0.02835,-0.02835 -0.0567,-0.02835 -0.01418,0 -0.02835,0.02835 -0.02835,0.0567 v 0.01418 c 0,0.01417 0.02835,0.02835 0.0567,0.02835 0.04252,-0.01418 0.04252,-0.02835 0.04252,-0.04253 z m -0.637863,-1.700969 v 0.01417 c 0,0.01418 0.02835,0.02835 0.0567,0.02835 0.01418,0 0.02835,-0.01418 0.02835,-0.04252 0,0 0,-0.01417 0,-0.01417 v -0.01418 c 0,-0.01418 -0.02835,-0.02835 -0.0567,-0.02835 -0.02835,0.01417 -0.04252,0.04252 -0.02835,0.0567 z m 0.127573,0.283495 c 0.01418,0 0.02835,-0.01418 0.02835,-0.04252 0,0 0,-0.01417 0,-0.01417 v -0.01418 c 0,-0.01418 -0.02835,-0.02835 -0.0567,-0.02835 -0.01418,0 -0.02835,0.02835 -0.02835,0.0567 v 0.01418 c 0.01417,0.02835 0.04252,0.04252 0.0567,0.02835 z m 0.354368,1.162329 v 0.01417 c 0,0.01418 0.02835,0.02835 0.0567,0.02835 0.01418,0 0.02835,-0.01417 0.02835,-0.04253 0,0 0,-0.01418 0,-0.01418 v -0.01418 c 0,-0.01418 -0.02835,-0.02835 -0.0567,-0.02835 -0.02835,0.01418 -0.04252,0.04252 -0.02835,0.0567 z m 0.155922,0.481941 v 0.01417 c 0,0.01418 0.02835,0.02835 0.0567,0.02835 0.01418,0 0.02835,-0.01418 0.02835,-0.04252 0,0 0,-0.01418 0,-0.01418 v -0.01418 c 0,-0.01418 -0.02835,-0.02835 -0.0567,-0.02835 -0.01418,0.01418 -0.02835,0.04252 -0.02835,0.0567 z M 55.66311,7.7750447 c 0.01418,0 0.02835,-0.01418 0.02835,-0.04252 0,0 0,-0.01417 0,-0.01417 v -0.01418 c 0,-0.01418 -0.02835,-0.02835 -0.0567,-0.02835 -0.01418,0 -0.02835,0.02835 -0.02835,0.0567 v 0.01417 c 0.01417,0.02835 0.04252,0.04253 0.0567,0.02835 z m -3.600384,-1.474173 -0.01417,-0.01418 c -0.01418,-0.01417 -0.04253,-0.01417 -0.0567,0 -0.01418,0.01418 -0.01418,0.04253 0,0.0567 l 0.01418,0.01417 c 0.01418,0.01418 0.04253,0.01418 0.0567,0 0,-0.01417 0.01417,-0.01417 0.01417,-0.02835 0,0 0,-0.01417 -0.01417,-0.02835 z m 1.94194,1.686794 c 0,-0.01418 0,-0.02835 -0.01418,-0.02835 l -0.01418,-0.01418 c -0.01418,-0.01418 -0.04253,-0.01418 -0.0567,0 -0.01418,0.01418 -0.01418,0.04252 0,0.0567 l 0.01418,0.01418 c 0.01417,0.01418 0.04253,0.01418 0.0567,0 0,0 0.01418,-0.01418 0.01418,-0.02835 z m -1.814367,-1.474173 0.01418,0.01418 c 0.01418,0.01418 0.04253,0.01418 0.0567,0 0,-0.01418 0.01418,-0.01418 0.01418,-0.02835 0,-0.01418 0,-0.02835 -0.01418,-0.02835 l -0.01418,-0.01417 c -0.01418,-0.01418 -0.04253,-0.01418 -0.0567,0 -0.01418,0.01417 -0.01418,0.04252 0,0.0567 z m 2.962521,2.466405 c 0,-0.01417 0,-0.02835 -0.01418,-0.02835 l -0.01418,-0.01418 c -0.01418,-0.01418 -0.04252,-0.01418 -0.0567,0 -0.01418,0.01418 -0.01418,0.04252 0,0.0567 l 0.01418,0.01418 c 0.01418,0.01418 0.04252,0.01418 0.0567,0 0.01418,0 0.01418,-0.01418 0.01418,-0.02835 z m -0.581164,-0.496116 c 0,-0.01417 0,-0.02835 -0.01418,-0.02835 l -0.01418,-0.01418 c -0.01418,-0.01418 -0.04252,-0.01418 -0.0567,0 -0.01417,0.01418 -0.01417,0.04252 0,0.0567 l 0.01418,0.01418 c 0.01418,0.01417 0.04252,0.01417 0.0567,0 0.01418,0 0.01418,-0.01418 0.01418,-0.02835 z m 0.396892,0.340194 c 0,-0.01418 0,-0.02835 -0.01417,-0.02835 l -0.01418,-0.01418 c -0.01418,-0.01418 -0.04253,-0.01418 -0.0567,0 -0.01418,0.01418 -0.01418,0.04252 0,0.0567 l 0.01418,0.01418 c 0.01418,0.01417 0.04253,0.01417 0.0567,0 0,-0.01418 0.01418,-0.02835 0.01418,-0.02835 z m -0.581164,-0.496116 c 0,-0.01418 0,-0.02835 -0.01418,-0.02835 l -0.01418,-0.01418 c -0.01418,-0.01418 -0.04253,-0.01418 -0.0567,0 -0.01418,0.01418 -0.01418,0.04252 0,0.0567 l 0.01418,0.01418 c 0.01417,0.01418 0.04253,0.01418 0.0567,0 0.01418,-0.01418 0.01418,-0.02835 0.01418,-0.02835 z m -1.346601,-1.162329 c 0,-0.01417 0,-0.02835 -0.01417,-0.02835 l -0.01418,-0.01418 c -0.01418,-0.01418 -0.04252,-0.01418 -0.0567,0 -0.01418,0.01418 -0.01418,0.04252 0,0.0567 l 0.01418,0.01418 c 0.01418,0.01417 0.04252,0.01417 0.0567,0 0.01417,-0.01418 0.01417,-0.02835 0.01417,-0.02835 z m 1.148155,0.992232 c 0,-0.01418 0,-0.02835 -0.01418,-0.02835 l -0.01418,-0.01418 c -0.01418,-0.01418 -0.04253,-0.01418 -0.0567,0 -0.01418,0.01418 -0.01418,0.04252 0,0.0567 l 0.01418,0.01418 c 0.01418,0.01418 0.04253,0.01418 0.0567,0 0.01418,-0.01418 0.01418,-0.01418 0.01418,-0.02835 z m -0.382719,-0.326019 c 0,-0.01417 0,-0.02835 -0.01418,-0.02835 l -0.01418,-0.01418 c -0.01417,-0.01417 -0.04253,-0.01417 -0.0567,0 -0.01418,0.01418 -0.01418,0.04252 0,0.0567 l 0.01418,0.01418 c 0.01418,0.01417 0.04253,0.01417 0.0567,0 0.01418,-0.01418 0.01418,-0.02835 0.01418,-0.02835 z m -0.581164,-0.51029 c 0,-0.01418 0,-0.02835 -0.01418,-0.02835 l -0.01418,-0.01417 c -0.01418,-0.01418 -0.04253,-0.01418 -0.0567,0 -0.01418,0.01417 -0.01418,0.04252 0,0.0567 l 0.01418,0.01418 c 0.01418,0.01418 0.04253,0.01418 0.0567,0 0.01417,0 0.01417,-0.01418 0.01417,-0.02835 z m 0.198446,0.170096 c 0,-0.01417 0,-0.02835 -0.01417,-0.02835 l -0.01418,-0.01417 c -0.01417,-0.01418 -0.04253,-0.01418 -0.0567,0 -0.01418,0.01417 -0.01418,0.04252 0,0.0567 l 0.01418,0.01418 c 0.01418,0.01418 0.04253,0.01418 0.0567,0 0.01417,-0.01418 0.01417,-0.01418 0.01417,-0.02835 z m -1.048931,-0.80796 0.01418,0.01418 c 0.01418,0.01418 0.04252,0.01418 0.0567,0 0,-0.01418 0.01418,-0.01418 0.01418,-0.02835 0,-0.01418 0,-0.02835 -0.01418,-0.02835 l -0.01418,-0.01417 c -0.01418,-0.01418 -0.04252,-0.01418 -0.0567,0 -0.01418,0.01417 -0.01418,0.04252 0,0.0567 z m 0.467767,0.311844 c 0,-0.01417 0,-0.02835 -0.01418,-0.02835 l -0.01417,-0.01418 c -0.01418,-0.01418 -0.04253,-0.01418 -0.0567,0 -0.01418,0.01418 -0.01418,0.04252 0,0.0567 l 0.02835,0.01418 c 0.01418,0.01417 0.04253,0.01417 0.0567,0 0,-0.01418 0,-0.01418 0,-0.02835 z m 0.77961,0.666213 c 0,-0.01417 0,-0.02835 -0.01418,-0.02835 l -0.01418,-0.01418 c -0.01417,-0.01418 -0.04252,-0.01418 -0.0567,0 -0.01418,0.01418 -0.01418,0.04252 0,0.0567 l 0.01418,0.01418 c 0.01417,0.01418 0.04252,0.01418 0.0567,0 0,-0.01418 0.01418,-0.01418 0.01418,-0.02835 z m -0.963882,-0.83631 c 0,-0.01417 0,-0.02835 -0.01417,-0.02835 l -0.01418,-0.01418 c -0.01418,-0.01418 -0.04252,-0.01418 -0.0567,0 -0.01417,0.01418 -0.01417,0.04252 0,0.0567 l 0.01418,0.01418 c 0.01418,0.01418 0.04252,0.01418 0.0567,0 0.01417,0 0.01417,-0.01418 0.01417,-0.02835 z m 2.112037,1.828542 c 0,-0.01417 0,-0.02835 -0.01418,-0.02835 l -0.01418,-0.01418 c -0.01418,-0.01418 -0.04252,-0.01418 -0.0567,0 -0.01418,0.01418 -0.01418,0.04252 0,0.0567 l 0.01418,0.01418 c 0.01418,0.01417 0.04252,0.01417 0.0567,0 0.01418,-0.01418 0.01418,-0.01418 0.01418,-0.02835 z M 53.77787,11.134459 c 0.01417,0.01417 0.02835,0.02835 0.0567,0.02835 h 0.01418 c 0.01418,0 0.02835,-0.01418 0.02835,-0.04252 0,0 0,-0.01418 0,-0.01418 -0.01418,-0.01418 -0.02835,-0.02835 -0.0567,-0.02835 h -0.01418 c -0.02835,0.01417 -0.02835,0.04253 -0.02835,0.0567 z m 0.240971,-0.08505 c 0.01418,0.01418 0.02835,0.02835 0.0567,0.02835 h 0.01418 c 0.01418,0 0.02835,-0.01418 0.02835,-0.04252 0,0 0,-0.01418 0,-0.01418 -0.01418,-0.01418 -0.02835,-0.02835 -0.0567,-0.02835 h -0.01418 c -0.02835,0.01418 -0.04253,0.02835 -0.02835,0.0567 z m 0.311844,-0.07087 c 0.01417,0 0.02835,-0.01418 0.02835,-0.04252 0,0 0,-0.01418 0,-0.01418 -0.01418,-0.01418 -0.02835,-0.02835 -0.0567,-0.02835 h -0.01418 c -0.01418,0.01418 -0.02835,0.02835 -0.02835,0.0567 0.01418,0.01418 0.02835,0.02835 0.0567,0.02835 z m 0.467766,-0.184272 c 0.01418,0 0.02835,-0.01418 0.02835,-0.04253 0,0 0,-0.01418 0,-0.01418 -0.01418,-0.01418 -0.02835,-0.02835 -0.0567,-0.02835 h -0.01418 c -0.01418,0.01418 -0.02835,0.02835 -0.02835,0.0567 0.01418,0.01418 0.02835,0.02835 0.0567,0.02835 z m -0.226795,0.08505 c 0.01418,0 0.02835,-0.01418 0.02835,-0.04252 0,0 0,-0.01418 0,-0.01418 -0.01418,-0.01418 -0.02835,-0.02835 -0.0567,-0.02835 h -0.01418 c -0.01417,0.01418 -0.02835,0.02835 -0.02835,0.0567 0.01418,0.01418 0.02835,0.02835 0.0567,0.02835 z m -1.275727,0.439418 c 0.01418,0.01418 0.02835,0.02835 0.0567,0.02835 h 0.01417 c 0.01418,0 0.02835,-0.01418 0.02835,-0.04253 0,0 0,-0.01417 0,-0.01417 -0.01417,-0.01418 -0.02835,-0.02835 -0.0567,-0.02835 h -0.01418 c -0.01418,0.01418 -0.02835,0.02835 -0.02835,0.0567 z m -0.708735,0.255141 c 0.01418,0.01418 0.02835,0.02835 0.0567,0.02835 h 0.01418 c 0.01418,0 0.02835,-0.01418 0.02835,-0.04253 0,0 0,-0.01418 0,-0.01418 -0.01418,-0.01418 -0.02835,-0.02835 -0.0567,-0.02835 h -0.01417 c -0.02835,0.01417 -0.04252,0.04252 -0.02835,0.0567 z m 0.467767,-0.170097 c 0.01418,0.01418 0.02835,0.02835 0.0567,0.02835 h 0.01418 c 0.01418,0 0.02835,-0.01418 0.02835,-0.04252 0,0 0,-0.01418 0,-0.01418 -0.01418,-0.01417 -0.02835,-0.02835 -0.0567,-0.02835 h -0.01418 c -0.01418,0.01418 -0.02835,0.02835 -0.02835,0.0567 z m -0.226796,0.08505 c 0.01418,0.01417 0.02835,0.02835 0.0567,0.02835 h 0.01418 c 0.01417,0 0.02835,-0.01418 0.02835,-0.04252 0,0 0,-0.01417 0,-0.01417 -0.01418,-0.01418 -0.02835,-0.02835 -0.0567,-0.02835 h -0.01418 c -0.02835,0.01417 -0.04253,0.04253 -0.02835,0.0567 z m 0.708737,-0.269321 c 0.01418,0.01418 0.02835,0.02835 0.0567,0.02835 h 0.01418 c 0.01418,0 0.02835,-0.01418 0.02835,-0.04253 0,0 0,-0.01418 0,-0.01418 -0.01418,-0.01418 -0.02835,-0.02835 -0.0567,-0.02835 h -0.01418 c -0.02835,0.01417 -0.02835,0.04252 -0.02835,0.0567 z"
         id="path2" />
    </g>
    <rect
       style="fill:none;stroke:#ffffff;stroke-width:0.412448;stroke-linejoin:bevel;stroke-dasharray:0, 4.53692;stroke-dashoffset:4.12448"
       id="rect844"
       width="40.504696"
       height="13.142978"
       x="23.439709"
       y="32.436142"
       ry="0.29032737"
       inkscape:export-xdpi="965.79016"
       inkscape:export-ydpi="965.79016" />
    <rect
       style="fill:none;stroke:#ffffff;stroke-width:0.228223;stroke-linejoin:bevel;stroke-dasharray:0, 2.51046000000000014;stroke-dashoffset:2.28223"
       id="rect845"
       width="5.0532508"
       height="40.576321"
       x="18.386457"
       y="-0.50329924"
       ry="0.16841047"
       inkscape:export-xdpi="965.79016"
       inkscape:export-ydpi="965.79016" />
    <rect
       ry="0.16841047"
       y="-0.50329924"
       x="63.828648"
       height="40.576321"
       width="5.0532508"
       id="rect847"
       style="fill:none;stroke:#ffffff;stroke-width:0.228223;stroke-linejoin:bevel;stroke-dasharray:0, 2.51046000000000014;stroke-dashoffset:2.28223"
       inkscape:export-xdpi="965.79016"
       inkscape:export-ydpi="965.79016" />
    <rect
       inkscape:export-ydpi="965.79016"
       inkscape:export-xdpi="965.79016"
       ry="0.29032737"
       y="32.436142"
       x="23.439709"
       height="13.142978"
       width="40.504696"
       id="rect1076"
       style="fill:none;stroke:#ffffff;stroke-width:0.412448;stroke-linejoin:bevel;stroke-dasharray:0, 4.53692;stroke-dashoffset:4.12448" />
    <rect
       inkscape:export-ydpi="965.79016"
       inkscape:export-xdpi="965.79016"
       ry="0.29032737"
       y="-5.8234897"
       x="23.439709"
       height="13.142978"
       width="40.504696"
       id="rect1078"
       style="fill:none;stroke:#ffffff;stroke-width:0.412448;stroke-linejoin:bevel;stroke-dasharray:0, 4.53692;stroke-dashoffset:4.12448" />
    <rect
       style="fill:none;stroke:#ffffff;stroke-width:0.412448;stroke-linejoin:bevel;stroke-dasharray:0, 4.53692;stroke-dashoffset:4.12448"
       id="rect1080"
       width="40.504696"
       height="13.142978"
       x="23.439709"
       y="-5.8234897"
       ry="0.29032737"
       inkscape:export-xdpi="965.79016"
       inkscape:export-ydpi="965.79016" />
  </g>
</svg>
